<?xml version="1.0" standalone="no"?>
<!DOCTYPE svg PUBLIC "-//W3C//DTD SVG 20010904//EN"
 "http://www.w3.org/TR/2001/REC-SVG-20010904/DTD/svg10.dtd">
<svg version="1.0" xmlns="http://www.w3.org/2000/svg"
 width="3001.000000pt" height="3001.000000pt" viewBox="0 0 3001.000000 3001.000000"
 preserveAspectRatio="xMidYMid meet">
<metadata>
Created by potrace 1.14, written by Peter Selinger 2001-2017
</metadata>
<g transform="translate(0.000000,3001.000000) scale(0.100000,-0.100000)"
fill="#000000" stroke="none">
<path d="M17390 27891 c0 -15 105 -158 209 -283 209 -256 226 -283 255 -425
10 -48 28 -84 75 -154 33 -49 61 -94 61 -98 0 -4 -6 -16 -14 -27 -14 -18 -28
-19 -373 -16 l-358 3 -55 37 c-52 35 -55 39 -58 85 l-3 47 -53 0 c-68 0 -113
29 -145 93 -25 50 -29 92 -47 520 l-6 138 -47 -6 c-65 -9 -157 -56 -219 -112
l-54 -48 21 -45 c11 -25 21 -54 21 -66 0 -26 -44 -94 -108 -166 l-50 -57 -7
-180 -8 -181 -767 0 c-851 0 -799 -4 -786 65 6 31 4 36 -19 45 -15 6 -28 10
-30 10 -2 0 -9 -27 -16 -60 l-12 -60 -158 0 -159 0 -1 43 c-5 169 -15 252 -29
252 -9 0 -37 -45 -72 -115 -32 -64 -72 -128 -89 -144 l-32 -28 -131 6 c-253
13 -400 27 -427 42 -25 13 -65 80 -84 142 l-7 23 -30 -26 c-16 -14 -42 -28
-56 -31 -82 -17 -174 -50 -229 -81 -67 -37 -122 -44 -176 -24 -16 6 -33 11
-38 11 -11 0 -135 -109 -228 -200 -37 -36 -150 -161 -253 -277 l-186 -213 -6
-67 c-15 -159 -27 -188 -190 -438 -104 -158 -191 -324 -202 -382 -9 -47 8 -80
90 -178 75 -89 100 -131 116 -198 24 -94 -27 -189 -291 -542 -153 -204 -227
-311 -258 -373 l-22 -43 20 -33 c11 -18 30 -41 42 -52 12 -10 32 -41 45 -69
43 -91 38 -132 -87 -714 -39 -179 -79 -376 -90 -439 -22 -133 -18 -160 52
-328 53 -129 236 -490 339 -671 90 -158 104 -208 94 -316 -7 -68 -7 -68 17
-63 145 32 300 37 369 12 24 -9 66 -31 93 -48 27 -18 52 -27 57 -22 4 5 18 69
30 142 11 72 27 156 35 185 75 287 206 357 409 218 93 -64 99 -151 22 -306
l-48 -96 28 -57 c33 -68 206 -248 271 -281 68 -34 153 -24 192 23 16 19 -7 54
-103 154 -96 101 -83 132 112 263 138 92 255 127 741 218 117 23 220 46 227
52 29 23 15 80 -62 253 -188 419 -258 713 -233 974 20 212 92 384 175 418 59
24 113 -14 474 -336 335 -299 398 -340 522 -340 85 0 111 14 457 234 490 312
544 341 662 357 60 8 119 8 222 0 178 -15 275 -34 356 -72 55 -25 228 -66 238
-56 1 2 7 45 12 97 9 81 14 97 38 122 41 43 145 89 368 162 109 36 216 77 240
90 57 34 117 96 188 196 33 47 85 110 116 140 60 59 162 202 205 287 l26 52
-44 53 c-24 29 -103 111 -175 181 -73 70 -136 139 -141 153 -30 78 -33 172
-31 1073 2 770 0 952 -14 1155 -21 289 -15 277 -137 284 -61 3 -90 10 -111 24
-37 26 -171 188 -204 247 -56 99 -76 122 -167 195 -97 77 -106 83 -106 67z"/>
<path d="M21148 27265 c-37 -24 -72 -54 -79 -66 -6 -13 -10 -57 -7 -112 l3
-91 -42 3 -43 2 21 -47 c17 -37 19 -51 10 -70 -6 -13 -19 -24 -28 -24 -10 -1
-91 0 -181 0 -181 1 -157 9 -226 -75 -22 -28 -29 -30 -88 -29 -69 0 -105 15
-163 66 -49 43 -62 70 -79 178 -9 54 -22 100 -31 109 -11 11 -40 17 -94 19
l-79 4 -47 -43 c-25 -23 -78 -82 -118 -131 l-71 -88 -793 0 -793 0 -2 -712
c-3 -834 0 -1129 12 -1217 l9 -64 169 -171 c160 -161 202 -214 202 -251 0 -51
-148 -281 -249 -388 -38 -40 -95 -110 -128 -157 -68 -95 -136 -163 -204 -203
-26 -15 -135 -57 -244 -93 -236 -78 -343 -125 -350 -157 -3 -12 -7 -58 -9
-102 -2 -52 -18 -134 -45 -235 -92 -351 -107 -469 -76 -615 35 -166 91 -293
200 -455 114 -169 126 -239 58 -328 -27 -36 -28 -40 -27 -162 1 -232 56 -477
155 -680 57 -119 55 -118 154 -119 93 0 137 -14 175 -56 24 -26 25 -32 24
-149 -3 -235 -39 -317 -177 -408 l-37 -25 70 -67 c39 -37 115 -103 168 -147
97 -81 97 -81 147 -77 39 4 103 31 285 121 176 87 276 130 400 171 194 63 406
117 579 146 161 28 507 141 781 255 76 31 84 40 152 165 147 272 243 371 417
434 104 37 337 82 526 101 88 9 175 19 193 21 l32 5 0 3014 0 3013 -37 6 c-21
3 -78 8 -128 11 -49 3 -115 8 -145 11 -52 5 -58 3 -122 -41z"/>
<path d="M14395 23403 c-38 -56 -73 -179 -84 -290 -23 -256 42 -534 219 -932
67 -149 83 -197 87 -245 5 -73 -15 -113 -70 -139 -19 -10 -134 -35 -254 -57
-270 -50 -531 -113 -598 -144 -42 -19 -188 -117 -219 -146 -5 -5 23 -43 67
-90 92 -98 109 -140 79 -198 -46 -90 -188 -129 -294 -79 -105 49 -280 224
-335 335 -38 78 -35 112 20 221 59 117 62 159 15 194 -55 41 -97 58 -136 55
-29 -2 -42 -11 -68 -45 -45 -58 -70 -142 -104 -336 -31 -180 -48 -226 -94
-242 -23 -8 -37 -5 -79 19 -142 79 -146 81 -231 79 -43 -1 -123 -9 -178 -19
l-98 -17 -11 -41 c-16 -60 -55 -131 -84 -154 -13 -11 -46 -23 -71 -27 l-47 -7
6 -55 c4 -38 13 -63 29 -80 66 -71 934 -663 972 -663 42 0 107 62 208 200 46
62 108 93 172 86 61 -7 104 -32 244 -145 61 -51 112 -87 112 -82 0 5 -14 39
-30 76 -73 163 -124 334 -110 370 21 55 83 41 315 -70 169 -80 237 -135 512
-411 246 -247 346 -362 418 -480 62 -100 102 -143 193 -204 106 -71 133 -78
205 -46 155 69 227 38 343 -151 33 -53 85 -122 117 -154 103 -104 398 -315
606 -434 87 -50 181 -76 326 -91 60 -6 68 -5 92 17 14 13 100 123 191 244 371
493 473 605 616 675 85 42 179 70 232 70 l32 0 4 124 c3 118 4 126 38 192 23
46 46 75 68 89 193 118 199 127 215 326 8 109 8 142 -2 152 -7 7 -53 14 -116
17 -84 4 -109 9 -132 26 -41 31 -116 180 -167 335 -61 182 -88 336 -90 519 -1
154 5 179 55 242 20 25 21 31 10 67 -6 22 -45 90 -86 151 -87 130 -131 219
-173 350 -70 219 -68 336 8 640 28 112 48 210 46 217 -3 7 -20 13 -38 13 -51
0 -153 27 -208 55 -27 14 -80 32 -118 40 -103 21 -318 37 -402 30 -111 -10
-125 -18 -785 -437 -77 -49 -169 -103 -205 -121 -59 -29 -73 -32 -160 -32
-161 0 -210 31 -605 381 -238 211 -338 294 -356 294 -4 0 -20 -17 -34 -37z"/>
<path d="M10935 21340 c-104 -28 -285 -97 -330 -127 -66 -43 -160 -139 -288
-293 -170 -203 -442 -506 -562 -625 -125 -125 -301 -266 -377 -305 -32 -16
-127 -45 -211 -65 -85 -20 -159 -40 -167 -45 -20 -12 -8 -42 91 -220 116 -208
232 -393 280 -445 l38 -40 138 -3 c94 -3 285 8 598 32 628 48 723 54 1005 66
289 11 427 3 497 -31 130 -63 329 -238 1018 -899 182 -175 390 -371 463 -438
434 -397 837 -717 942 -751 52 -16 205 -37 484 -66 315 -32 363 -44 653 -159
82 -32 157 -56 178 -56 80 0 411 130 564 222 47 28 121 76 164 106 l77 55 0
736 -1 736 -81 45 c-193 106 -536 351 -642 459 -27 27 -85 105 -130 173 -73
110 -85 124 -118 132 -31 8 -48 5 -105 -20 -91 -39 -135 -37 -226 10 -114 58
-210 145 -274 251 -80 130 -142 204 -383 449 -319 324 -380 371 -618 475 -41
18 -76 30 -79 27 -8 -7 23 -95 87 -251 76 -183 86 -219 72 -249 -13 -29 -43
-38 -75 -21 -14 7 -93 67 -175 134 -83 66 -165 129 -184 141 -63 38 -106 23
-163 -58 -94 -135 -188 -212 -260 -212 -33 0 -60 11 -127 53 -205 129 -781
527 -881 610 -59 49 -74 76 -83 155 -6 57 -9 63 -33 68 -105 23 -176 56 -281
129 -186 130 -322 162 -495 115z"/>
<path d="M21465 21149 c-165 -16 -389 -51 -500 -79 -238 -60 -317 -130 -475
-424 -90 -168 -81 -161 -385 -276 -285 -107 -458 -160 -624 -190 -85 -16 -157
-32 -161 -37 -54 -56 -232 -382 -265 -482 -34 -104 -8 -245 106 -585 101 -301
180 -492 387 -931 128 -274 182 -439 182 -562 0 -26 -14 -115 -31 -198 -22
-108 -32 -191 -36 -297 -9 -244 4 -285 201 -592 239 -373 273 -449 306 -691
11 -83 20 -154 20 -158 0 -4 305 -7 678 -7 l677 0 39 73 c73 136 145 234 228
312 l82 76 -104 104 -103 104 -8 117 c-9 127 -12 134 -66 134 l-33 0 0 434 0
433 218 6 c200 5 282 15 282 36 0 4 -24 18 -52 32 -61 28 -97 80 -150 214 -54
139 -49 226 18 285 40 35 86 39 140 14 26 -12 41 -32 64 -80 43 -90 152 -174
225 -174 25 0 24 3 -27 44 -68 55 -88 85 -88 131 0 27 8 44 28 64 24 24 39 28
137 40 60 7 110 13 111 14 3 3 55 424 57 459 1 18 -2 45 -5 59 -7 25 -3 28
118 89 115 57 127 61 154 50 57 -24 73 -69 46 -130 -4 -11 66 -98 239 -293
234 -264 244 -278 233 -302 -10 -21 -8 -32 10 -64 15 -26 22 -56 22 -90 l0
-51 40 0 c116 0 158 -62 176 -262 l7 -78 -27 0 c-40 0 -32 -21 39 -98 73 -79
182 -163 234 -181 138 -46 447 60 735 253 l149 100 -53 25 c-68 32 -153 132
-145 173 6 35 74 220 86 232 4 5 51 0 111 -13 130 -28 327 -37 479 -22 204 20
263 50 313 161 49 109 50 108 -67 255 -57 72 -110 129 -118 128 -8 -1 -43 -14
-78 -28 -54 -23 -75 -26 -130 -23 -63 5 -158 34 -194 61 -14 10 -18 38 -24
163 l-6 152 -36 6 c-20 3 -62 6 -94 6 -37 0 -59 4 -61 13 -3 6 -7 24 -10 40
l-6 27 -110 0 -110 0 0 50 c0 28 -2 50 -5 50 -7 0 -506 59 -551 65 -41 6 -41
5 -47 -30 -4 -22 3 -66 19 -122 13 -49 24 -92 24 -97 0 -5 -70 -6 -167 -2
-164 7 -169 8 -196 34 -61 58 -65 74 -56 216 l8 129 -56 171 c-44 135 -57 166
-65 152 -7 -13 -5 -38 6 -85 36 -147 13 -173 -164 -186 -52 -4 -107 -14 -122
-22 -17 -8 -41 -37 -58 -71 -17 -31 -39 -69 -48 -84 -16 -26 -16 -28 10 -55
31 -34 58 -85 58 -111 0 -45 -63 -73 -240 -107 -47 -9 -121 -30 -164 -46 -43
-16 -81 -27 -84 -24 -3 3 2 49 11 103 10 53 17 100 17 105 0 4 -232 7 -515 7
l-515 0 5 608 c3 334 7 840 10 1125 4 414 3 517 -7 516 -7 -1 -53 -5 -103 -10z"/>
<path d="M19072 20085 c-205 -60 -324 -107 -542 -216 -230 -115 -285 -134
-356 -126 -52 5 -123 57 -299 215 -106 96 -110 99 -124 79 -10 -13 -19 -77
-27 -186 -7 -91 -13 -167 -13 -168 -1 -2 -31 -3 -68 -3 -82 0 -156 -19 -238
-59 -121 -60 -203 -151 -533 -588 -241 -320 -268 -349 -319 -359 -33 -6 -156
5 -242 22 l-31 7 0 -747 0 -746 -87 -65 c-186 -137 -393 -242 -638 -323 -60
-21 -111 -38 -113 -38 -1 -1 6 -26 18 -55 17 -46 37 -69 136 -159 281 -255
379 -370 644 -760 252 -371 235 -354 396 -387 83 -17 165 -18 1179 -18 898 0
1097 2 1130 14 22 7 110 43 195 79 337 141 358 145 693 143 147 -1 267 1 267
6 0 55 -48 323 -66 373 -30 78 -103 205 -261 452 -133 209 -164 272 -188 381
-26 119 -17 336 24 532 17 83 31 173 31 200 0 122 -57 280 -233 650 -233 490
-437 1071 -454 1291 -5 67 -2 94 16 155 24 78 96 228 159 331 42 69 64 108 60
107 -2 0 -54 -15 -116 -34z"/>
<path d="M8819 19778 c-111 -78 -272 -245 -379 -393 -118 -164 -213 -283 -328
-409 -84 -92 -96 -110 -143 -220 -114 -267 -180 -369 -317 -493 -128 -116
-272 -260 -272 -273 0 -5 32 -19 71 -31 59 -18 84 -20 148 -15 152 14 146 11
217 97 36 43 73 81 84 84 26 8 72 -18 131 -74 65 -63 65 -85 -2 -156 -28 -30
-49 -58 -47 -64 1 -5 79 -110 173 -233 256 -336 392 -462 675 -622 72 -41 111
-75 255 -222 160 -163 174 -175 243 -203 131 -54 295 -162 512 -335 59 -47
140 -103 181 -125 75 -40 184 -79 194 -69 3 3 -15 76 -40 162 -25 87 -45 164
-45 172 0 12 114 14 826 14 l827 0 -7 42 c-4 24 -17 53 -29 66 -35 37 -35 123
1 277 17 72 34 147 37 167 8 43 9 43 160 53 156 10 161 11 195 66 16 26 43 55
60 64 41 21 117 22 156 2 44 -23 64 -72 75 -185 16 -153 19 -176 28 -191 7
-11 32 -10 157 8 82 12 172 21 200 21 93 0 116 -36 158 -245 33 -165 59 -227
115 -285 47 -49 94 -70 158 -70 30 0 33 3 39 38 11 72 43 92 148 92 89 0 148
20 165 56 16 36 14 142 -8 354 -11 101 -17 188 -15 192 3 5 74 8 157 9 84 0
172 4 197 7 l45 7 3 50 c2 28 1 68 -3 91 -5 37 -12 45 -78 90 -84 58 -317 242
-472 374 -239 204 -424 374 -890 821 -503 481 -645 611 -790 724 -132 101
-146 108 -254 116 -177 13 -741 -16 -1396 -72 -132 -11 -330 -23 -440 -26
-298 -9 -306 -6 -436 188 -73 109 -269 449 -295 513 -11 25 -22 46 -25 46 -3
0 -39 -23 -80 -52z"/>
<path d="M7864 17959 c-27 -34 -63 -68 -81 -75 -43 -18 -217 -37 -273 -30 -25
3 -80 18 -122 33 l-77 26 -67 -62 c-66 -62 -399 -287 -666 -452 -76 -46 -137
-87 -138 -91 0 -4 41 -78 92 -164 l92 -158 21 -155 c20 -151 22 -156 47 -165
21 -8 32 -4 68 25 l42 34 263 3 263 3 21 -27 c12 -15 21 -35 21 -44 0 -10 -39
-64 -87 -122 -167 -198 -241 -305 -351 -513 -40 -77 -113 -209 -160 -292 -70
-123 -90 -152 -104 -147 -17 5 -18 -10 -19 -238 -1 -134 -5 -409 -8 -613 l-6
-370 -430 -3 -430 -2 4 -255 3 -255 -471 0 -471 0 0 -349 0 -349 -64 1 c-93 3
-113 -15 -151 -132 -17 -52 -39 -99 -50 -107 -10 -8 -41 -14 -67 -14 -27 0
-64 -6 -83 -14 -33 -14 -34 -16 -24 -45 6 -16 32 -51 58 -77 39 -39 59 -50
112 -63 l64 -16 3 -101 3 -102 31 -6 c17 -3 58 -6 91 -6 l60 0 -8 -340 -7
-340 198 -1 c110 0 316 -4 459 -8 l260 -7 315 -106 c173 -58 337 -115 364
-128 102 -49 111 -153 31 -385 -54 -157 -54 -191 2 -294 68 -126 165 -263 177
-250 2 2 20 56 41 119 76 232 104 261 270 275 110 9 112 10 140 64 40 79 59
200 49 306 -14 151 -9 300 15 412 12 56 25 113 31 127 8 23 10 24 47 10 22 -8
81 -13 141 -14 l104 0 -7 -420 -8 -420 124 0 124 0 53 293 c114 620 147 770
256 1147 163 567 289 970 449 1435 81 234 112 441 95 636 -14 166 -33 231
-167 543 -149 346 -181 487 -188 812 -6 233 3 347 38 533 40 206 137 448 229
569 l40 52 -43 37 c-112 98 -212 217 -475 566 l-112 149 60 66 60 66 -22 23
c-12 13 -27 23 -33 23 -7 0 -34 -28 -61 -61z"/>
<path d="M14070 16976 c0 -85 38 -322 63 -394 8 -20 70 -107 138 -192 148
-184 251 -330 281 -397 31 -71 39 -197 28 -432 -6 -113 -12 -206 -14 -208 -4
-4 -185 33 -250 52 -58 17 -80 14 -257 -30 -159 -40 -149 -31 -149 -124 0 -76
2 -82 45 -156 68 -114 111 -205 130 -270 15 -50 16 -68 6 -129 -20 -121 -77
-216 -140 -234 -14 -4 -104 -7 -199 -7 l-172 0 0 -428 c0 -333 -3 -428 -12
-431 -7 -2 -92 -18 -188 -35 -224 -40 -368 -75 -388 -94 -12 -13 -16 -45 -19
-149 l-4 -133 63 -47 c35 -26 123 -101 196 -168 148 -136 212 -173 329 -189
87 -13 638 -35 652 -27 17 11 153 196 203 276 41 65 52 95 78 210 33 147 74
245 120 283 16 14 64 40 107 58 l78 34 267 0 268 0 0 1586 0 1585 -47 16 c-27
9 -111 41 -188 72 -202 79 -266 93 -585 126 -260 27 -375 42 -422 56 -16 5
-18 -3 -18 -80z"/>
<path d="M12262 17033 c-13 -3 -35 -25 -54 -54 -18 -27 -47 -56 -64 -64 -17
-8 -84 -20 -150 -26 -65 -7 -120 -13 -122 -15 -2 -1 -17 -55 -33 -121 -34
-139 -36 -194 -10 -231 27 -39 41 -97 41 -174 l0 -68 -815 0 c-448 0 -815 -2
-815 -4 0 -3 16 -57 35 -120 l35 -116 0 -247 c1 -137 4 -291 9 -345 l8 -96 73
-83 c40 -45 89 -108 108 -138 101 -157 162 -395 162 -631 1 -453 138 -738 461
-956 292 -198 631 -344 851 -368 126 -13 340 29 493 97 118 52 247 47 367 -14
l38 -19 0 67 c0 94 16 183 38 213 11 15 45 34 81 47 60 22 272 69 419 93 l72
12 0 440 0 439 188 -6 c230 -8 259 -3 289 50 33 59 49 162 33 211 -17 53 -62
142 -126 250 l-55 92 3 118 3 119 40 21 c40 22 241 77 345 94 46 8 71 6 162
-17 59 -15 110 -25 113 -21 3 3 7 104 8 225 l1 219 -28 57 c-33 68 -153 235
-300 416 -113 141 -114 143 -151 324 -13 65 -25 120 -27 122 -2 1 -25 -1 -53
-5 -27 -5 -98 -9 -157 -9 -60 -1 -108 -4 -108 -8 0 -5 7 -71 15 -148 8 -77 15
-175 15 -218 0 -163 -62 -225 -235 -236 l-90 -6 -6 -38 c-3 -21 -16 -48 -28
-60 -19 -19 -32 -22 -99 -21 -95 0 -152 24 -215 87 -64 64 -100 148 -137 322
-18 83 -36 158 -41 168 -13 23 -53 22 -226 -4 -76 -11 -152 -18 -170 -14 -68
12 -96 80 -108 255 -4 52 -12 104 -17 115 -11 20 -29 36 -38 33 -3 0 -15 -3
-28 -5z"/>
<path d="M8505 16961 c-118 -178 -196 -424 -226 -709 -7 -71 -10 -195 -6 -330
8 -314 35 -424 191 -790 141 -330 169 -439 168 -662 -1 -210 -35 -370 -142
-663 -69 -192 -194 -584 -320 -1007 -186 -625 -208 -716 -340 -1430 l-60 -325
0 -197 0 -198 245 0 245 0 0 -319 c0 -259 -3 -321 -14 -330 -22 -19 -118 -35
-161 -27 -32 6 -53 21 -102 73 l-63 66 0 -140 0 -141 -37 -28 c-53 -40 -93
-85 -93 -105 0 -27 78 -91 180 -149 52 -29 122 -77 154 -106 33 -30 66 -54 74
-54 8 0 51 27 94 60 93 70 144 87 202 70 51 -15 86 -38 234 -154 71 -55 133
-96 145 -96 31 1 101 34 159 76 38 28 58 54 88 114 50 99 82 137 129 151 32 9
44 8 74 -6 47 -22 134 -115 247 -265 49 -65 104 -130 122 -143 144 -107 823
-228 921 -164 63 41 62 37 62 417 0 190 -4 377 -8 417 l-7 71 53 12 c179 42
345 116 332 148 -3 9 -34 98 -67 197 -48 142 -61 194 -62 245 -1 62 0 65 29
79 25 12 49 12 165 1 196 -18 452 -28 553 -22 l87 5 0 353 0 354 440 0 440 0
2 563 3 562 323 3 322 2 0 179 0 179 -87 83 c-158 149 -273 238 -372 287 -80
40 -104 47 -165 50 -64 3 -81 0 -173 -37 -309 -125 -529 -127 -842 -6 -383
148 -717 372 -860 580 -134 194 -185 378 -201 735 -5 113 -12 214 -14 225 -3
11 -13 54 -22 95 -35 155 -104 281 -222 412 -34 37 -66 76 -72 88 -17 31 -30
221 -30 433 0 178 -1 187 -19 187 -33 0 -172 53 -241 92 -36 20 -119 80 -185
133 -143 114 -333 243 -418 284 -34 16 -88 41 -119 56 -44 20 -76 47 -135 113
-122 137 -204 216 -263 254 -120 77 -272 168 -280 168 -5 0 -29 -31 -55 -69z"/>
<path d="M15420 15111 l0 -1501 613 0 614 0 6 152 c4 83 7 280 7 437 l-1 286
-43 110 -43 110 148 3 149 3 0 298 0 299 -77 6 c-121 11 -202 25 -274 46 -58
17 -74 28 -120 78 -30 32 -126 164 -213 293 -282 415 -362 510 -653 778 l-113
103 0 -1501z"/>
<path d="M21876 15959 c-97 -93 -136 -146 -221 -304 -27 -49 -53 -93 -59 -97
-6 -4 -318 -8 -693 -8 -572 0 -683 -2 -683 -14 0 -39 62 -214 95 -269 51 -82
208 -304 279 -392 69 -86 90 -143 84 -233 -7 -131 -48 -190 -334 -482 -77 -79
-134 -145 -137 -160 -3 -14 -14 -95 -26 -180 -22 -167 -51 -291 -81 -349 -41
-80 -164 -174 -352 -268 -62 -31 -114 -58 -116 -59 -2 -1 37 -59 86 -128 50
-68 110 -161 133 -205 l44 -81 255 -2 255 -3 3 -172 2 -173 73 0 c155 0 459
35 582 66 33 8 134 39 225 68 91 29 181 57 200 62 l35 10 3 779 2 780 193 57
c507 151 818 218 1007 218 145 0 272 -39 570 -174 189 -86 226 -93 329 -67
197 49 476 191 738 373 l112 79 -21 45 c-16 31 -30 46 -48 50 -75 16 -164 59
-214 105 l-54 49 -106 0 c-122 0 -146 12 -146 75 l0 35 -130 0 -130 0 0 -85
c0 -103 -3 -105 -123 -105 -132 0 -126 -12 -130 260 l-2 224 -90 34 c-49 18
-95 38 -102 44 -21 17 -15 59 17 126 l30 64 0 249 0 249 -630 0 -629 0 -95
-91z"/>
<path d="M19573 15549 c-80 -10 -182 -44 -377 -126 -295 -123 -180 -113 -1283
-113 l-953 0 0 -345 0 -345 -130 0 -129 0 21 -47 c21 -44 22 -67 25 -288 2
-132 0 -431 -4 -665 l-8 -425 -28 -57 c-15 -32 -77 -136 -138 -232 -60 -97
-114 -187 -119 -201 -6 -15 -10 -51 -10 -82 l0 -56 233 6 c380 11 717 34 885
62 172 29 383 80 767 185 143 39 323 82 400 96 192 34 293 59 404 101 139 52
616 279 714 340 84 51 149 107 172 147 33 56 60 177 86 376 16 129 25 171 42
195 12 16 103 114 203 217 205 211 244 269 244 364 0 29 -4 63 -9 77 -5 13
-51 79 -103 148 -222 293 -275 382 -319 539 -18 63 -35 118 -38 122 -8 8 -483
15 -548 7z"/>
<path d="M24440 14495 c-169 -121 -278 -185 -457 -273 -194 -95 -346 -145
-438 -144 -83 0 -121 13 -339 111 -368 167 -471 176 -909 76 -159 -37 -424
-108 -579 -156 l-98 -30 0 -739 0 -740 378 0 c502 0 738 -19 876 -71 154 -57
339 -236 474 -459 l39 -65 91 -3 91 -3 -53 113 c-106 223 -144 400 -125 583 5
49 13 93 17 97 7 7 637 -8 738 -18 45 -4 52 -9 65 -36 8 -18 25 -35 39 -39 14
-4 51 -15 83 -24 80 -22 97 -42 97 -110 0 -31 -6 -68 -14 -84 -14 -27 -53 -51
-82 -51 -31 0 -3 -63 58 -130 68 -75 120 -151 136 -198 17 -51 -4 -94 -57
-116 -37 -14 -182 -35 -248 -36 -20 0 -23 -5 -23 -45 l0 -45 98 -1 c53 0 135
-4 181 -8 104 -10 127 -29 116 -97 -8 -53 9 -90 48 -104 39 -13 164 -13 172 0
4 6 -6 27 -22 46 -15 20 -37 46 -47 60 -16 20 -18 28 -8 49 l12 26 542 -3 543
-3 92 -44 91 -44 89 8 c48 4 131 14 183 21 52 8 164 21 249 29 85 8 159 19
165 25 15 15 20 214 7 325 -7 63 -21 124 -37 165 -32 79 -41 134 -24 155 9 10
31 15 72 15 57 0 59 1 53 23 -4 12 -19 41 -34 65 -50 82 -62 110 -77 183 -18
84 -23 304 -10 440 l9 86 -39 15 c-49 19 -77 24 -246 43 -137 15 -219 31 -403
79 -192 49 -353 69 -394 46 -22 -11 -54 -88 -85 -201 l-23 -84 -244 0 -244 0
1 60 c1 77 16 123 59 177 19 24 35 48 35 54 0 6 -19 20 -42 30 -23 10 -68 38
-100 61 l-58 43 0 490 0 490 -63 0 c-35 0 -104 3 -153 6 l-89 5 -135 -96z"/>
<path d="M14815 13521 c-46 -12 -127 -50 -148 -69 -34 -30 -58 -92 -87 -221
-16 -69 -34 -139 -40 -156 -20 -53 -182 -286 -245 -351 -71 -75 -25 -69 -405
-54 -293 12 -375 21 -458 50 -31 11 -58 20 -59 20 -2 0 -3 -88 -3 -195 l0
-195 -325 0 -325 0 0 -517 0 -518 503 -1 c465 0 748 -8 1182 -35 336 -20 358
-26 520 -134 93 -63 305 -231 420 -333 l80 -72 31 36 c66 73 166 223 213 319
74 150 83 200 91 550 8 321 14 363 66 452 41 72 286 278 473 399 l58 37 -5 72
c-6 94 13 149 87 263 31 48 91 143 132 211 l74 125 3 158 3 158 -568 0 c-312
0 -719 2 -903 5 -184 2 -348 1 -365 -4z"/>
<path d="M19475 13073 c-208 -108 -417 -184 -620 -224 -224 -43 -208 -37 -153
-65 72 -36 82 -58 81 -173 -2 -186 -36 -298 -99 -328 l-36 -18 6 -62 c10 -101
53 -299 91 -419 46 -149 52 -180 70 -389 15 -181 24 -231 64 -337 40 -108 71
-393 71 -651 0 -127 0 -127 23 -123 12 3 49 8 82 11 80 9 204 46 334 99 134
56 232 76 366 76 l105 0 0 -658 0 -658 119 -48 c126 -50 185 -83 266 -150 122
-100 380 -334 490 -445 125 -126 159 -148 218 -136 17 4 83 27 146 52 l114 46
120 -7 c65 -4 125 -10 133 -13 12 -4 14 99 14 714 l0 719 69 51 c108 81 106
64 102 606 l-3 447 325 0 325 0 4 65 c5 74 22 101 60 92 34 -9 397 -379 448
-457 52 -81 169 -320 205 -420 21 -61 28 -104 36 -230 l10 -155 40 -65 c52
-82 170 -240 181 -240 4 0 60 103 123 230 109 218 118 232 170 273 69 54 166
112 322 194 164 86 169 106 44 175 -144 79 -436 251 -517 304 -44 29 -85 64
-91 77 -8 17 -12 193 -12 567 l-2 543 -45 76 c-149 245 -330 408 -494 445
-136 31 -246 38 -705 43 -351 4 -484 2 -525 -7 -30 -7 -138 -39 -240 -72 -299
-96 -462 -124 -797 -135 l-193 -6 0 176 0 177 -242 0 -243 1 -45 92 c-48 99
-234 367 -253 367 -7 -1 -34 -13 -62 -27z"/>
<path d="M18345 12734 c-416 -116 -636 -168 -845 -199 -127 -19 -729 -55 -926
-55 l-141 0 -104 -71 c-188 -130 -359 -270 -412 -337 -52 -68 -59 -111 -67
-442 -7 -259 -11 -318 -29 -388 -37 -147 -122 -302 -268 -489 l-64 -83 152
-202 c230 -307 286 -373 357 -428 78 -60 184 -114 266 -135 113 -28 502 -76
906 -110 301 -25 387 -18 526 45 101 45 292 162 474 288 245 170 206 156 468
160 l222 4 0 121 c0 253 -33 551 -70 635 -35 78 -49 151 -65 337 -19 223 -20
230 -55 340 -39 120 -65 227 -89 364 -34 190 -27 236 44 265 41 18 53 50 64
183 13 148 14 146 -90 199 -49 24 -90 44 -91 43 -2 0 -75 -21 -163 -45z"/>
<path d="M4595 11307 c-93 -36 -288 -126 -312 -145 l-23 -17 16 -110 c9 -60
29 -171 44 -245 15 -74 25 -138 21 -142 -3 -3 -224 -9 -491 -13 -267 -3 -495
-8 -507 -11 l-23 -4 0 -390 0 -390 345 0 345 0 0 45 0 45 166 0 167 0 -6 118
c-14 246 -20 460 -14 485 11 42 55 86 98 97 89 24 194 -39 300 -178 l49 -65 0
-148 0 -147 28 -6 c15 -3 255 -8 535 -12 l507 -6 0 65 0 65 -47 8 -48 9 -3 92
-3 92 -140 33 c-77 18 -144 35 -150 38 -6 4 -4 86 6 236 8 126 15 253 15 282
l0 52 -70 45 c-152 97 -294 157 -492 205 -171 42 -239 46 -313 17z"/>
<path d="M12363 11223 l-523 -3 0 -354 0 -353 -137 -6 c-142 -6 -408 4 -592
23 -57 6 -105 9 -108 6 -7 -6 33 -144 84 -288 l45 -128 102 0 c62 0 155 -10
241 -25 318 -57 387 -65 557 -65 92 0 178 -4 193 -10 52 -20 51 -52 -24 -510
-37 -227 -62 -326 -151 -591 -77 -229 -100 -314 -100 -377 0 -41 1 -42 28 -36
47 11 186 79 477 234 155 83 319 166 364 186 176 76 332 94 373 44 18 -22 19
-42 16 -344 -3 -283 -5 -326 -21 -361 -21 -47 -53 -84 -83 -95 -26 -10 -31
-37 -40 -222 l-7 -138 268 0 268 0 -7 -89 -6 -88 377 -5 c208 -3 380 -4 382
-2 2 2 26 210 52 461 27 252 58 519 70 593 55 353 174 863 265 1140 90 272
102 282 370 288 l172 4 -2 67 c-1 89 8 119 40 127 31 8 50 -1 264 -126 142
-83 256 -137 267 -126 2 2 -76 109 -174 238 -98 128 -198 260 -222 293 -103
138 -538 490 -694 560 -41 18 -82 26 -192 34 -379 29 -1034 52 -1395 49 -151
-2 -510 -4 -797 -5z"/>
<path d="M19574 10365 c-34 -7 -98 -29 -141 -48 -88 -39 -213 -80 -313 -104
-48 -11 -149 -16 -384 -20 l-319 -5 -126 -86 c-466 -319 -625 -399 -813 -410
l-87 -5 -79 -63 c-44 -35 -86 -73 -94 -86 -8 -13 -30 -93 -47 -178 -45 -218
-116 -490 -142 -545 -17 -36 -42 -62 -113 -115 -110 -83 -144 -117 -189 -193
-46 -76 -64 -155 -82 -372 -9 -99 -27 -283 -40 -410 -14 -126 -25 -245 -25
-262 l0 -33 455 0 455 0 19 39 c24 47 68 85 117 101 79 26 185 -39 260 -161
l37 -59 258 0 258 0 19 43 c31 70 34 71 174 57 156 -15 199 -12 213 16 20 40
38 55 108 91 90 45 202 73 294 73 40 0 73 2 73 4 0 2 -16 20 -35 41 -75 78
-89 154 -40 205 29 30 45 35 205 59 41 7 114 21 161 32 l87 20 7 103 7 102
101 33 c225 73 312 129 547 351 l85 81 -70 65 c-106 99 -260 221 -313 248 -26
13 -102 45 -169 71 l-123 47 0 644 0 644 -67 -1 c-38 0 -96 -7 -129 -14z"/>
<path d="M15353 10168 c4 -18 7 -59 8 -91 l3 -59 -190 1 c-210 1 -259 -6 -290
-43 -64 -74 -244 -766 -324 -1243 -46 -280 -130 -1102 -130 -1281 l0 -150 138
-7 c130 -7 440 -3 784 12 l156 6 30 -30 c38 -38 47 -110 39 -313 -7 -150 -20
-218 -62 -325 l-25 -62 0 -514 0 -514 52 -13 c30 -7 64 -23 78 -37 23 -24 25
-32 25 -128 0 -56 -6 -129 -14 -162 -18 -80 -72 -134 -198 -195 l-93 -45 0
-127 0 -128 78 -1 c52 -1 1663 -14 1698 -14 1 0 -4 114 -12 254 -16 294 -44
640 -80 966 -30 271 -29 268 -185 517 -237 378 -322 533 -355 644 -21 72 -16
192 21 549 14 132 34 337 45 455 23 251 34 314 66 393 40 101 105 180 220 268
75 58 109 91 120 117 22 54 76 268 124 491 24 116 48 205 60 220 10 15 41 48
69 74 43 41 47 47 27 47 -49 0 -462 41 -656 66 -259 32 -334 47 -440 89 -47
18 -133 47 -191 64 -198 57 -246 78 -456 202 -75 43 -138 79 -141 79 -2 0 -2
-15 1 -32z"/>
<path d="M11090 10004 c-52 -39 -144 -80 -240 -107 l-85 -25 4 -353 c4 -392
-1 -441 -50 -509 -56 -77 -151 -100 -334 -80 -306 32 -617 111 -736 186 -20
13 -81 80 -134 151 -111 144 -166 208 -209 240 -28 22 -31 22 -49 5 -11 -9
-36 -51 -57 -93 -46 -90 -111 -153 -205 -200 -79 -39 -140 -47 -182 -25 -17 8
-82 56 -144 105 -132 105 -201 145 -232 137 -12 -3 -58 -32 -102 -65 -119 -90
-160 -92 -250 -10 -29 28 -92 72 -139 99 -47 27 -97 57 -111 66 l-26 17 27
-59 c14 -32 38 -93 52 -134 15 -41 46 -131 70 -199 62 -179 136 -429 165 -561
67 -304 61 -392 -63 -890 -126 -505 -140 -606 -140 -998 0 -503 38 -1067 140
-2087 27 -269 51 -526 55 -570 3 -44 8 -90 11 -102 l4 -23 250 0 250 0 0 419
0 419 218 4 c119 3 225 8 234 12 9 4 20 15 25 24 4 9 10 436 13 947 l5 930
148 3 147 3 0 135 0 136 274 -7 274 -7 -6 271 -5 271 254 -1 c263 0 811 -14
1029 -25 l126 -7 134 60 c329 148 481 163 698 73 52 -22 110 -42 130 -45 21
-4 48 -8 61 -11 l24 -5 -7 313 c-3 172 -9 334 -12 359 l-6 46 128 6 c71 4 227
7 346 7 l217 0 18 33 c16 28 18 67 21 330 l3 297 -33 0 c-50 0 -167 -35 -261
-78 -45 -22 -195 -99 -332 -172 -432 -231 -513 -264 -579 -236 -45 19 -56 42
-56 113 0 79 17 142 104 405 42 125 87 273 101 330 25 104 105 593 105 640 l0
26 -192 5 c-168 4 -219 9 -393 42 -146 28 -235 39 -330 41 -127 4 -131 4 -165
-22z"/>
<path d="M4770 9763 l0 -231 29 -7 c33 -7 71 -39 71 -61 0 -36 -32 -84 -90
-135 -118 -102 -131 -173 -62 -330 l42 -96 0 -149 c0 -82 -3 -173 -6 -201 l-7
-53 -436 -2 -436 -3 -17 -460 c-12 -336 -17 -735 -17 -1482 l-1 -1023 208 0
c114 0 324 -7 467 -15 143 -8 263 -15 268 -15 4 0 7 -157 7 -350 l0 -350 430
0 430 0 0 -547 0 -548 -93 -1 c-78 -1 -103 -5 -149 -27 -31 -14 -62 -35 -68
-48 -13 -24 -26 -313 -16 -353 5 -21 14 -24 103 -34 54 -7 126 -17 161 -23
l62 -11 0 -98 0 -97 108 -7 c59 -4 132 -9 162 -12 l56 -6 14 -52 15 -51 115
-7 c63 -4 203 -11 310 -17 107 -6 222 -17 255 -26 33 -8 114 -42 180 -74 132
-66 210 -86 370 -97 l95 -7 0 632 0 631 354 0 355 0 -5 32 c-2 18 -15 155 -29
303 -14 149 -39 401 -55 560 -79 770 -121 1436 -121 1900 -1 368 15 484 131
945 94 374 113 477 113 615 0 140 -26 281 -97 527 -43 146 -130 405 -140 416
-6 5 -376 -15 -382 -20 -1 -2 -8 -35 -13 -73 -6 -39 -13 -84 -16 -101 l-5 -31
-289 -6 c-337 -8 -395 -3 -568 55 -68 22 -123 42 -123 43 0 2 26 72 59 157 32
84 68 183 80 220 12 36 29 72 37 79 19 15 105 17 342 5 l182 -9 0 32 c0 39 5
37 -285 137 l-210 72 3 90 4 89 -104 7 c-56 4 -115 9 -129 12 -21 4 -32 -4
-72 -56 -43 -55 -50 -60 -86 -60 -38 0 -40 1 -56 50 -9 27 -20 52 -23 54 -4 2
-289 9 -632 15 -344 6 -660 13 -702 14 l-78 2 0 -232z"/>
<path d="M20395 8493 c-208 -200 -288 -254 -485 -324 -119 -42 -115 -35 -125
-170 l-6 -77 -57 -16 c-98 -27 -234 -54 -321 -65 -47 -6 -89 -15 -94 -20 -13
-13 9 -48 70 -113 46 -49 54 -63 51 -89 -5 -55 -36 -68 -178 -78 -139 -10
-135 -9 -240 -58 -58 -27 -78 -41 -90 -66 -30 -64 -104 -78 -290 -57 -95 11
-96 10 -106 -57 l-6 -43 -328 0 -327 0 -19 42 c-31 70 -98 153 -139 172 -31
15 -41 16 -67 5 -30 -12 -60 -63 -73 -121 l-5 -28 -495 0 -495 0 -6 -25 c-3
-13 -4 -65 -3 -114 4 -88 5 -92 71 -223 37 -73 138 -245 224 -383 86 -137 171
-281 190 -320 38 -79 51 -151 84 -486 57 -584 71 -809 79 -1324 l8 -440 66
-255 c37 -140 85 -325 109 -410 40 -148 42 -162 42 -300 1 -160 -8 -203 -54
-250 -23 -23 -33 -52 -56 -149 -44 -193 -62 -210 -205 -192 -144 18 -129 36
-129 -148 0 -87 3 -186 6 -220 l7 -61 2238 0 2239 0 0 3164 c0 2673 -2 3165
-14 3169 -7 3 -65 9 -128 12 l-114 7 -96 -40 c-153 -64 -227 -73 -299 -36 -14
7 -89 76 -167 153 -77 78 -144 141 -149 141 -4 -1 -57 -49 -118 -107z"/>
</g>
</svg>
